#!OML:ASF X:\für Bonn\!DataBase\2005_08_11_Bastian_Final\c3d\Bastian.ASF
:FULLY-SPECIFIED
:DEGREES
353
root 0.798804 16.8713 -15.8085 525.477 -227.465 -181.315
lowerback 12.7555 3.80929 6.88897
upperback 9.98399 5.98544 0.887176
thorax 4.07101 3.51454 -3.39593
lowerneck -11.6717 -9.30666 4.35277
upperneck 5.01144 -13.2973 2.98203
head 3.59793 -6.32712 -0.637474
rclavicle 4.37326e-014 -1.15295e-014
rhumerus 4.98668 48.4279 -78.6651
rradius 71.9287
rwrist -9.46603
rhand -20.7196 5.87539
rfingers 7.12502
rthumb 5.64508 -24.0294
lclavicle 4.37326e-014 -1.15295e-014
lhumerus -107.505 -38.478 -179.789
lradius 33.0994
lwrist -225.34
lhand -9.6345 -7.75579
lfingers 7.12502
lthumb 16.3356 21.5762
rfemur 0.330297 10.6678 23.4827
rtibia 45.6722
rfoot -19.1469 -3.29461
rtoes 24.5584
lfemur 5.738 -3.04126 -11.4647
ltibia 35.4692
lfoot -24.4693 -4.30125
ltoes -34.4879
354
root 0.817244 16.8803 -15.8212 525.349 -227.218 -181.572
lowerback 12.4987 3.82378 6.82566
upperback 9.85899 5.97774 0.728639
thorax 4.08328 3.50559 -3.5116
lowerneck -11.8205 -9.18782 4.42068
upperneck 5.10477 -13.1617 2.97233
head 3.65577 -6.25299 -0.655731
rclavicle 4.35338e-014 3.85642e-014
rhumerus 3.33962 48.9204 -79.7729
rradius 73.2773
rwrist -8.60277
rhand -20.7902 6.16581
rfingers 7.12502
rthumb 5.57688 -23.7408
lclavicle 4.35338e-014 3.85642e-014
lhumerus -106.551 -39.4902 -181.293
lradius 33.5593
lwrist -228.046
lhand -9.61269 -7.41783
lfingers 7.12502
lthumb 16.3566 21.9124
rfemur 0.394102 10.8553 23.6455
rtibia 45.431
rfoot -18.9559 -3.2931
rtoes 23.8197
lfemur 5.83861 -3.17748 -11.4486
ltibia 35.3072
lfoot -24.319 -4.13461
ltoes -34.6952
355
root 0.835491 16.8885 -15.8351 525.229 -227.002 -181.803
lowerback 12.2667 3.82499 6.76008
upperback 9.74301 5.95504 0.575067
thorax 4.08975 3.48931 -3.62154
lowerneck -11.9211 -9.08462 4.39711
upperneck 5.18014 -13.037 3.04816
head 3.71123 -6.18301 -0.62951
rclavicle 1.05306e-013 -2.54444e-014
rhumerus 1.74707 49.4809 -80.7474
rradius 74.5258
rwrist -7.70587
rhand -20.8524 6.5938
rfingers 7.12502
rthumb 5.51684 -23.3144
lclavicle 1.05306e-013 -2.54444e-014
lhumerus -105.47 -40.5751 -182.949
lradius 33.8574
lwrist -230.597
lhand -9.73577 -7.09628
lfingers 7.12502
lthumb 16.2381 22.2437
rfemur 0.468918 11.0362 23.7879
rtibia 45.1954
rfoot -18.6805 -3.31
rtoes 23.4428
lfemur 5.94079 -3.3303 -11.4558
ltibia 35.1541
lfoot -24.1516 -3.96884
ltoes -34.8304
356
root 0.853925 16.896 -15.8492 525.149 -226.768 -181.994
lowerback 12.0546 3.83049 6.66357
upperback 9.60677 5.93698 0.423689
thorax 4.06023 3.47161 -3.71568
lowerneck -11.9893 -8.97738 4.41236
upperneck 5.23616 -12.9068 3.08818
head 3.74802 -6.11266 -0.617378
rclavicle -7.10655e-015 -2.5842e-015
rhumerus 0.0814512 50.1031 -81.7126
rradius 75.6666
rwrist -6.75176
rhand -20.9168 7.12919
rfingers 7.12502
rthumb 5.45468 -22.7806
lclavicle -7.10655e-015 -2.5842e-015
lhumerus -104.225 -41.6787 -184.844
lradius 34.0482
lwrist -233.087
lhand -10.033 -6.83129
lfingers 7.12502
lthumb 15.9519 22.5318
rfemur 0.524289 11.2489 23.9031
rtibia 44.9591
rfoot -18.3672 -3.31185
rtoes 23.3408
lfemur 6.02724 -3.44123 -11.4883
ltibia 35.0162
lfoot -24.0383 -3.70991
ltoes -35.2035
357
root 0.872111 16.9017 -15.8647 525.09 -226.563 -182.16
lowerback 11.8354 3.82663 6.58821
upperback 9.49713 5.90914 0.257072
thorax 4.06703 3.45323 -3.83427
lowerneck -12.0977 -8.87549 4.45103
upperneck 5.29097 -12.7887 3.11865
head 3.78969 -6.0477 -0.61488
rclavicle 2.03754e-014 3.37934e-014
rhumerus -1.52888 50.6772 -82.6469
rradius 76.6406
rwrist -5.63523
rhand -20.9448 7.65723
rfingers 7.12502
rthumb 5.42769 -22.2533
lclavicle 2.03754e-014 3.37934e-014
lhumerus -102.836 -42.8779 -186.997
lradius 34.1879
lwrist -235.515
lhand -10.6045 -6.59308
lfingers 7.12502
lthumb 15.4014 22.8132
rfemur 0.579212 11.4241 23.9833
rtibia 44.7294
rfoot -18.0453 -3.30098
rtoes 23.2237
lfemur 6.09804 -3.53024 -11.5311
ltibia 34.8785
lfoot -23.8791 -3.45506
ltoes -35.4851
358
root 0.890327 16.9086 -15.8799 525.03 -226.361 -182.348
lowerback 11.6149 3.81472 6.50378
upperback 9.37482 5.8694 0.121793
thorax 4.05463 3.42599 -3.91532
lowerneck -12.1901 -8.77572 4.43164
upperneck 5.39477 -12.6695 3.17843
head 3.85226 -5.98016 -0.594486
rclavicle 6.9351e-014 -1.16786e-014
rhumerus -3.21478 51.2577 -83.6318
rradius 77.4194
rwrist -4.41076
rhand -21.0273 8.16909
rfingers 7.12502
rthumb 5.34801 -21.7434
lclavicle 6.9351e-014 -1.16786e-014
lhumerus -101.101 -44.0884 -189.578
lradius 34.2589
lwrist -237.861
lhand -11.3106 -6.34635
lfingers 7.12502
lthumb 14.7213 23.1109
rfemur 0.611433 11.5864 24.0748
rtibia 44.4992
rfoot -17.7142 -3.30143
rtoes 23.0309
lfemur 6.14682 -3.63895 -11.5632
ltibia 34.7472
lfoot -23.7618 -3.14812
ltoes -35.7425
359
root 0.908083 16.916 -15.8963 525.023 -226.193 -182.445
lowerback 11.4428 3.79651 6.38539
upperback 9.25246 5.82342 -0.0463203
thorax 4.01531 3.39465 -4.01601
lowerneck -12.4119 -8.68195 4.43266
upperneck 5.64238 -12.5778 3.23677
head 3.99035 -5.91774 -0.591944
rclavicle -1.41454e-013 3.65018e-014
rhumerus -4.95175 51.7957 -84.704
rradius 78.0353
rwrist -3.27714
rhand -21.1102 8.52105
rfingers 7.12502
rthumb 5.26794 -21.3935
lclavicle -1.41454e-013 3.65018e-014
lhumerus -99.1847 -45.3075 -192.475
lradius 34.3678
lwrist -240.118
lhand -12.2562 -6.09321
lfingers 7.12502
lthumb 13.8101 23.4284
rfemur 0.651026 11.7233 24.0857
rtibia 44.2817
rfoot -17.4553 -3.29268
rtoes 22.7882
lfemur 6.20722 -3.71286 -11.6585
ltibia 34.6053
lfoot -23.622 -2.80581
ltoes -35.9964
360
root 0.926933 16.9238 -15.9119 524.983 -226.027 -182.597
lowerback 11.2433 3.76827 6.27833
upperback 9.1411 5.76269 -0.16852
thorax 3.99706 3.35578 -4.07115
lowerneck -12.5996 -8.58512 4.37921
upperneck 5.86221 -12.4695 3.28642
head 4.11567 -5.85063 -0.578935
rclavicle 9.0124e-014 -2.88238e-015
rhumerus -6.79361 52.2431 -85.883
rradius 78.4372
rwrist -2.09052
rhand -21.2401 8.68276
rfingers 7.12502
rthumb 5.1425 -21.2348
lclavicle 9.0124e-014 -2.88238e-015
lhumerus -97.0171 -46.5034 -195.625
lradius 34.5091
lwrist -242.264
lhand -13.3565 -5.84719
lfingers 7.12502
lthumb 12.7496 23.7436
rfemur 0.689148 11.8654 24.1411
rtibia 44.068
rfoot -17.2384 -3.31016
rtoes 22.3229
lfemur 6.26484 -3.8476 -11.7321
ltibia 34.4598
lfoot -23.481 -2.46706
ltoes -35.8303
361
root 0.944927 16.9324 -15.9285 524.972 -225.891 -182.691
lowerback 11.09 3.73986 6.14779
upperback 9.02947 5.70395 -0.300238
thorax 3.95222 3.31664 -4.12751
lowerneck -12.7565 -8.49427 4.35661
upperneck 6.04086 -12.3704 3.34371
head 4.21874 -5.78889 -0.565241
rclavicle -3.516e-014 1.45113e-014
rhumerus -8.74189 52.5723 -87.1657
rradius 78.6868
rwrist -1.0268
rhand -21.2965 8.74128
rfingers 7.12502
rthumb 5.08809 -21.1776
lclavicle -3.516e-014 1.45113e-014
lhumerus -94.6845 -47.6509 -198.94
lradius 34.6833
lwrist -244.303
lhand -14.5982 -5.67311
lfingers 7.12502
lthumb 11.5522 23.9885
rfemur 0.721532 11.9451 24.1269
rtibia 43.8708
rfoot -17.1159 -3.29182
rtoes 21.6448
lfemur 6.3329 -3.97619 -11.8526
ltibia 34.2969
lfoot -23.3082 -2.06863
ltoes -35.7351
362
root 0.964079 16.9402 -15.9448 524.92 -225.768 -182.846
lowerback 10.9152 3.70037 6.08455
upperback 8.92075 5.63478 -0.431279
thorax 3.92899 3.2766 -4.21761
lowerneck -12.883 -8.4079 4.35404
upperneck 6.21195 -12.2796 3.41457
head 4.31294 -5.73065 -0.54851
rclavicle 8.40859e-014 -1.17283e-014
rhumerus -10.7487 52.7941 -88.5527
rradius 78.7639
rwrist -0.0555641
rhand -21.389 8.53872
rfingers 7.12502
rthumb 4.9987 -21.3823
lclavicle 8.40859e-014 -1.17283e-014
lhumerus -92.5262 -48.8062 -202.027
lradius 34.963
lwrist -246.031
lhand -15.9506 -5.60318
lfingers 7.12502
lthumb 10.2478 24.1272
rfemur 0.757087 12.0193 24.1554
rtibia 43.6728
rfoot -17.0148 -3.29534
rtoes 20.9161
lfemur 6.4017 -4.1056 -11.9231
ltibia 34.1393
lfoot -23.1618 -1.67238
ltoes -35.7715
363
root 0.981907 16.9482 -15.9609 524.918 -225.682 -182.917
lowerback 10.7779 3.65732 5.91626
upperback 8.81201 5.55517 -0.540958
thorax 3.86961 3.22418 -4.23034
lowerneck -12.9723 -8.32548 4.28465
upperneck 6.35714 -12.1833 3.52294
head 4.39798 -5.67083 -0.505048
rclavicle -4.71617e-014 -1.78906e-015
rhumerus -12.8193 52.9529 -89.9582
rradius 78.7295
rwrist 0.687829
rhand -21.4611 8.18144
rfingers 7.12502
rthumb 4.92909 -21.7412
lclavicle -4.71617e-014 -1.78906e-015
lhumerus -90.4506 -49.9324 -204.915
lradius 35.3036
lwrist -247.585
lhand -17.3469 -5.63549
lfingers 7.12502
lthumb 8.90062 24.1568
rfemur 0.796966 12.0852 24.127
rtibia 43.4839
rfoot -16.9359 -3.32682
rtoes 19.9858
lfemur 6.46818 -4.2213 -12.0434
ltibia 33.976
lfoot -22.9909 -1.35467
ltoes -35.6567
364
root 1.00089 16.9567 -15.9769 524.899 -225.623 -183.035
lowerback 10.6182 3.59724 5.77155
upperback 8.6937 5.45282 -0.623657
thorax 3.8094 3.16014 -4.22538
lowerneck -13.0321 -8.22537 4.25648
upperneck 6.50128 -12.0607 3.55069
head 4.46806 -5.60253 -0.490514
rclavicle 1.54058e-014 -4.37326e-015
rhumerus -14.9334 53.0172 -91.3882
rradius 78.547
rwrist 1.2618
rhand -21.4475 7.77333
rfingers 7.12502
rthumb 4.94226 -22.149
lclavicle 1.54058e-014 -4.37326e-015
lhumerus -88.2434 -50.9693 -207.888
lradius 35.705
lwrist -249.183
lhand -18.8153 -5.68619
lfingers 7.12502
lthumb 7.48344 24.1614
rfemur 0.827909 12.0754 24.0982
rtibia 43.2874
rfoot -16.9037 -3.32539
rtoes 19.0078
lfemur 6.4961 -4.29513 -12.1109
ltibia 33.8309
lfoot -22.8216 -1.05047
ltoes -35.7291
365
root 1.01985 16.9663 -15.9929 524.905 -225.608 -183.102
lowerback 10.4598 3.51635 5.5513
upperback 8.59685 5.31792 -0.695389
thorax 3.75871 3.07686 -4.16465
lowerneck -13.0444 -8.10591 4.33831
upperneck 6.92166 -11.9229 3.51649
head 4.1462 -5.52441 -0.455707
rclavicle -2.83268e-015 2.54444e-014
rhumerus -17.0906 52.961 -92.7999
rradius 78.3281
rwrist 1.62083
rhand -21.3126 7.38539
rfingers 7.12502
rthumb 5.07248 -22.5339
lclavicle -2.83268e-015 2.54444e-014
lhumerus -85.6698 -51.9147 -211.213
lradius 36.0855
lwrist -250.936
lhand -20.2884 -5.77767
lfingers 7.12502
lthumb 6.06137 24.1156
rfemur 0.865554 12.0487 24.0241
rtibia 43.0974
rfoot -16.8797 -3.31612
rtoes 18.0852
lfemur 6.53327 -4.40849 -12.2354
ltibia 33.6904
lfoot -22.6546 -0.755733
ltoes -35.6715
366
root 1.03896 16.9741 -16.0084 524.854 -225.595 -183.233
lowerback 10.3178 3.42497 5.34525
upperback 8.49264 5.17052 -0.726387
thorax 3.68802 2.986 -4.0703
lowerneck -13.0429 -7.99222 4.31995
upperneck 7.04829 -11.777 3.52621
head 4.18779 -5.44742 -0.443925
rclavicle -9.63609e-014 4.29375e-014
rhumerus -19.2095 52.8028 -94.1863
rradius 77.8758
rwrist 1.74934
rhand -21.0698 7.16117
rfingers 7.12502
rthumb 5.30694 -22.7524
lclavicle -9.63609e-014 4.29375e-014
lhumerus -82.4544 -52.627 -215.206
lradius 36.418
lwrist -253.141
lhand -21.6968 -5.70381
lfingers 7.12502
lthumb 4.70157 24.224
rfemur 0.925171 12.022 24.0139
rtibia 42.9012
rfoot -16.8703 -3.35647
rtoes 16.9833
lfemur 6.56601 -4.46146 -12.2728
ltibia 33.5728
lfoot -22.4818 -0.549352
ltoes -35.5633
